<svg width="138" height="37" viewBox="0 0 138 37" fill="none" xmlns="http://www.w3.org/2000/svg">
<path d="M40.6142 6.8385L39.9062 9.17106H38.353L40.9929 0.938477H42.9084L45.5867 9.17106H43.9731L43.2267 6.8385H40.6142ZM42.9743 5.7024L42.3266 3.6717C42.1675 3.17225 42.0357 2.60695 41.9095 2.13495H41.8876C41.7668 2.61244 41.6461 3.18323 41.4979 3.6717L40.8612 5.7024H42.9743Z" fill="white"/>
<path d="M47.8318 3.22165L48.7978 6.24026C48.9679 6.76715 49.0887 7.24464 49.1984 7.73311H49.2369C49.3466 7.24464 49.4784 6.77813 49.6375 6.24026L50.5925 3.22165H52.1677L49.8955 9.17107H48.4191L46.2073 3.22165H47.8318Z" fill="white"/>
<path d="M58.1668 7.73859C58.1668 8.27646 58.1887 8.80334 58.2656 9.16558H56.9099L56.8002 8.50697H56.7617C56.405 8.97348 55.7848 9.30278 55 9.30278C53.8035 9.30278 53.1284 8.43562 53.1284 7.53003C53.1284 6.03719 54.4621 5.26882 56.6575 5.27979V5.181C56.6575 4.79133 56.4983 4.1437 55.45 4.1437C54.8628 4.1437 54.2535 4.32481 53.8474 4.58277L53.5565 3.60583C53.9956 3.3369 54.764 3.07895 55.708 3.07895C57.6124 3.07895 58.1613 4.2864 58.1613 5.59812V7.73859H58.1668ZM56.7014 6.26222C55.6366 6.25124 54.6268 6.47078 54.6268 7.37636C54.6268 7.96362 55.0055 8.23255 55.4829 8.23255C56.0922 8.23255 56.5203 7.84287 56.6684 7.41478C56.7069 7.30501 56.7069 7.19524 56.7069 7.08548V6.2677L56.7014 6.26222Z" fill="white"/>
<path d="M61.037 2.36542C60.5376 2.36542 60.2083 1.9977 60.2083 1.55863C60.2083 1.09212 60.5485 0.74086 61.0535 0.74086C61.5584 0.74086 61.8822 1.09761 61.8987 1.55863C61.8987 1.9977 61.5694 2.36542 61.0535 2.36542H61.0425H61.037ZM60.2906 9.17103V3.22161H61.7944V9.17103H60.2906Z" fill="white"/>
<path d="M63.9565 0.482925H65.4604V9.17105H63.9565V0.482925Z" fill="white"/>
<path d="M72.2488 7.73859C72.2488 8.27646 72.2707 8.80334 72.3476 9.16558H70.992L70.8822 8.50697H70.8438C70.4925 8.97348 69.8668 9.30278 69.082 9.30278C67.8855 9.30278 67.2104 8.43562 67.2104 7.53003C67.2104 6.03719 68.5441 5.26882 70.7395 5.27979V5.181C70.7395 4.79133 70.5803 4.1437 69.532 4.1437C68.9448 4.1437 68.3356 4.32481 67.9294 4.58277L67.6385 3.60583C68.0776 3.3369 68.846 3.07895 69.79 3.07895C71.6945 3.07895 72.2433 4.2864 72.2433 5.59812V7.73859H72.2488ZM70.7834 6.26222C69.7186 6.25124 68.7088 6.47078 68.7088 7.37636C68.7088 7.96362 69.0875 8.23255 69.565 8.23255C70.1742 8.23255 70.6023 7.84287 70.7505 7.41478C70.7889 7.30501 70.7889 7.19524 70.7889 7.08548V6.2677L70.7834 6.26222Z" fill="white"/>
<path d="M74.3739 0.482925H75.8777V4.0394H75.8996C76.2674 3.46312 76.915 3.08442 77.8041 3.08442C79.2585 3.08442 80.2958 4.29187 80.2849 6.10304C80.2849 8.24351 78.9292 9.30277 77.5846 9.30277C76.8162 9.30277 76.1301 9.01189 75.702 8.27644H75.6801L75.6087 9.17105H74.3245C74.3464 8.7704 74.3739 8.1063 74.3739 7.50807V0.482925ZM75.8777 6.71225C75.8777 6.83299 75.8887 6.95923 75.9161 7.06899C76.0753 7.67821 76.6021 8.11728 77.2498 8.11728C78.1883 8.11728 78.7646 7.37086 78.7646 6.16341C78.7646 5.11513 78.2651 4.25894 77.2607 4.25894C76.6515 4.25894 76.0862 4.69801 75.9271 5.35662C75.9051 5.46638 75.8777 5.59811 75.8777 5.74629V6.71225Z" fill="white"/>
<path d="M82.0569 0.482925H83.5607V9.17105H82.0569V0.482925Z" fill="white"/>
<path d="M86.7927 6.61895C86.8311 7.69468 87.6708 8.1557 88.6258 8.1557C89.3228 8.1557 89.8113 8.04593 90.2778 7.88677L90.4974 8.9131C89.9869 9.13263 89.2734 9.2918 88.4227 9.2918C86.4908 9.2918 85.3547 8.10631 85.3547 6.28416C85.3547 4.63764 86.3591 3.08443 88.2636 3.08443C90.1681 3.08443 90.8267 4.67057 90.8267 5.9823C90.8267 6.26221 90.8047 6.48174 90.7773 6.61895H86.7927ZM89.4052 5.57067C89.4161 5.02183 89.1747 4.11624 88.1703 4.11624C87.2427 4.11624 86.8531 4.96146 86.7872 5.57067H89.3997H89.4052Z" fill="white"/>
<path d="M98.2422 9.30277C96.5682 9.30277 95.262 8.1557 95.262 6.23476C95.262 4.31383 96.5462 3.08443 98.341 3.08443C100.136 3.08443 101.299 4.33029 101.299 6.14146C101.299 8.32584 99.7624 9.30826 98.2586 9.30826H98.2476L98.2422 9.30277ZM98.2916 8.21607C99.1477 8.21607 99.746 7.38733 99.746 6.17439C99.746 5.24685 99.3289 4.17113 98.3025 4.17113C97.2762 4.17113 96.8097 5.20843 96.8097 6.20183C96.8097 7.34891 97.386 8.21607 98.2751 8.21607H98.2861H98.2916Z" fill="white"/>
<path d="M103.067 4.9889C103.067 4.30285 103.045 3.73206 103.017 3.21615H104.324L104.395 4.11076H104.433C104.702 3.64424 105.35 3.08443 106.338 3.08443C107.326 3.08443 108.451 3.75401 108.451 5.63653V9.16556H106.947V5.80667C106.947 4.95048 106.629 4.30285 105.811 4.30285C105.213 4.30285 104.796 4.73094 104.636 5.18099C104.587 5.30174 104.565 5.48834 104.565 5.65848V9.16556H103.061V4.9889H103.067Z" fill="white"/>
<path d="M115.377 1.69037V3.21615H116.804V4.34127H115.377V6.95374C115.377 7.68919 115.575 8.05142 116.146 8.05142C116.414 8.05142 116.563 8.04044 116.733 7.99105L116.755 9.12714C116.535 9.21496 116.129 9.28631 115.668 9.28631C115.108 9.28631 114.653 9.10519 114.373 8.79784C114.043 8.45756 113.895 7.90323 113.895 7.12388V4.33578H113.05V3.21066H113.895V2.09652L115.372 1.6794L115.377 1.69037Z" fill="white"/>
<path d="M118.479 0.482925H119.982V4.02843H120.004C120.186 3.74852 120.443 3.51252 120.751 3.35884C121.058 3.1887 121.409 3.08991 121.788 3.08991C122.803 3.08991 123.863 3.75949 123.863 5.66945V9.17654H122.359V5.82862C122.359 4.97243 122.041 4.31382 121.212 4.31382C120.625 4.31382 120.213 4.7035 120.037 5.15903C119.988 5.29624 119.977 5.44992 119.977 5.60908V9.17654H118.473V0.488414L118.479 0.482925Z" fill="white"/>
<path d="M127.067 6.61895C127.106 7.69468 127.945 8.1557 128.9 8.1557C129.597 8.1557 130.086 8.04593 130.552 7.88677L130.772 8.9131C130.262 9.13263 129.548 9.2918 128.697 9.2918C126.765 9.2918 125.629 8.10631 125.629 6.28416C125.629 4.63764 126.634 3.08443 128.538 3.08443C130.443 3.08443 131.101 4.67057 131.101 5.9823C131.101 6.26221 131.079 6.48174 131.052 6.61895H127.067ZM129.68 5.57067C129.691 5.02183 129.449 4.11624 128.445 4.11624C127.517 4.11624 127.128 4.96146 127.062 5.57067H129.674H129.68Z" fill="white"/>
<path d="M21.9205 17.1567C21.8821 13.0843 25.2575 11.0976 25.4111 11.0042C23.5012 8.21615 20.5374 7.83745 19.4946 7.80452C17.0084 7.54107 14.5935 9.29736 13.3312 9.29736C12.0689 9.29736 10.0821 7.83196 7.98549 7.87587C5.27971 7.91977 2.74407 9.48396 1.361 11.9208C-1.50394 16.8823 0.631043 24.1709 3.37524 28.1829C4.74734 30.1478 6.35544 32.3376 8.452 32.2608C10.5047 32.173 11.273 30.9546 13.7538 30.9546C16.2345 30.9546 16.9316 32.2608 19.0775 32.2169C21.2839 32.1785 22.6724 30.2465 23.9951 28.2598C25.5868 26.0095 26.2234 23.7922 26.2454 23.6769C26.196 23.6605 21.9644 22.0469 21.9205 17.1567Z" fill="white"/>
<path d="M17.8698 5.17007C18.9729 3.78699 19.7358 1.90447 19.5218 0C17.9247 0.0713491 15.9214 1.10317 14.7743 2.4588C13.7535 3.64978 12.8424 5.60365 13.0784 7.43677C14.8786 7.56849 16.7227 6.53119 17.8753 5.17007" fill="white"/>
<path d="M51.6188 31.937H48.7593L47.1897 27.0084H41.7397L40.2468 31.937H37.4587L42.8648 15.159H46.1963L51.6243 31.937H51.6188ZM46.7177 24.9393L45.3017 20.5595C45.148 20.115 44.8681 19.0557 44.4564 17.3982H44.407C44.2424 18.1117 43.9735 19.1655 43.6112 20.5595L42.2172 24.9393H46.7231H46.7177Z" fill="white"/>
<path d="M65.5095 25.7351C65.5095 27.7932 64.9552 29.4178 63.8411 30.6143C62.8477 31.679 61.6073 32.2059 60.1309 32.2059C58.5393 32.2059 57.3922 31.6296 56.6952 30.488H56.6458V36.86H53.9565V23.8141C53.9565 22.5189 53.9235 21.1962 53.8577 19.8296H56.2232L56.3714 21.745H56.4207C57.3154 20.3016 58.6765 19.5771 60.5041 19.5771C61.9311 19.5771 63.1221 20.1424 64.0771 21.273C65.032 22.4036 65.5095 23.8855 65.5095 25.7296M62.7708 25.8284C62.7708 24.6484 62.5074 23.6824 61.975 22.914C61.3932 22.1182 60.6139 21.7176 59.6369 21.7176C58.9728 21.7176 58.3691 21.9426 57.8313 22.3762C57.2934 22.8207 56.9367 23.397 56.772 24.1105C56.6897 24.4453 56.6513 24.7142 56.6513 24.9283V26.948C56.6513 27.8262 56.9202 28.5726 57.4581 29.1763C58.0014 29.7855 58.6984 30.0874 59.5656 30.0874C60.581 30.0874 61.3658 29.6977 61.9311 28.9183C62.4964 28.139 62.7763 27.1072 62.7763 25.8284" fill="white"/>
<path d="M79.4236 25.7351C79.4236 27.7932 78.8693 29.4178 77.7551 30.6143C76.7617 31.679 75.5268 32.2059 74.045 32.2059C72.4533 32.2059 71.3063 31.6296 70.6092 30.488H70.5598V36.86H67.8705V23.8141C67.8705 22.5189 67.8376 21.1962 67.7717 19.8296H70.1372L70.2854 21.745H70.3348C71.2294 20.3016 72.585 19.5771 74.4182 19.5771C75.8452 19.5771 77.0361 20.1424 77.9911 21.273C78.9461 22.4036 79.4181 23.8855 79.4181 25.7296M76.6794 25.8284C76.6794 24.6484 76.4159 23.6824 75.8836 22.914C75.3018 22.1182 74.5225 21.7176 73.5455 21.7176C72.8814 21.7176 72.2777 21.9426 71.7398 22.3762C71.202 22.8207 70.8507 23.397 70.6861 24.1105C70.5982 24.4453 70.5598 24.7142 70.5598 24.9283V26.948C70.5598 27.8262 70.8288 28.5726 71.3666 29.1763C71.9045 29.7855 72.607 30.0874 73.4742 30.0874C74.484 30.0874 75.2744 29.6977 75.8397 28.9183C76.3995 28.139 76.6849 27.1072 76.6849 25.8284" fill="white"/>
<path d="M94.9884 27.2334C94.9884 28.6604 94.4944 29.8239 93.4955 30.7185C92.4034 31.701 90.8831 32.1894 88.9292 32.1894C87.1235 32.1894 85.6746 31.8436 84.5769 31.1466L85.2026 28.9074C86.3826 29.6208 87.6778 29.9776 89.0884 29.9776C90.1037 29.9776 90.8886 29.7471 91.4539 29.2915C92.0192 28.836 92.2991 28.2213 92.2991 27.4584C92.2991 26.7779 92.0686 26.2016 91.602 25.7406C91.1355 25.274 90.3617 24.8405 89.2859 24.4453C86.3497 23.3476 84.8843 21.745 84.8843 19.632C84.8843 18.2544 85.3947 17.1238 86.4265 16.2402C87.4528 15.3565 88.8249 14.9174 90.5318 14.9174C92.0576 14.9174 93.3309 15.1864 94.3408 15.7133L93.6712 17.9031C92.7272 17.3872 91.6569 17.1293 90.4605 17.1293C89.5165 17.1293 88.7755 17.3598 88.2486 17.8263C87.8041 18.2379 87.5791 18.7483 87.5791 19.3466C87.5791 20.0107 87.8315 20.5595 88.3474 20.9876C88.792 21.3883 89.6098 21.8164 90.7898 22.2829C92.2332 22.8646 93.2925 23.5452 93.9785 24.3246C94.6591 25.1039 94.9994 26.0753 94.9994 27.2389" fill="white"/>
<path d="M103.873 21.8548H100.91V27.7328C100.91 29.2257 101.431 29.9721 102.479 29.9721C102.957 29.9721 103.358 29.9282 103.67 29.8514L103.742 31.8931C103.215 32.0906 102.512 32.1894 101.651 32.1894C100.586 32.1894 99.7572 31.8656 99.1589 31.218C98.5607 30.5703 98.2643 29.4836 98.2643 27.9579V21.8603H96.4971V19.8405H98.2643V17.6287L100.904 16.8329V19.846H103.868V21.8658L103.873 21.8548Z" fill="white"/>
<path d="M117.243 25.7845C117.243 27.645 116.711 29.1708 115.651 30.3673C114.537 31.5967 113.061 32.2059 111.222 32.2059C109.384 32.2059 108.034 31.6186 106.98 30.4386C105.926 29.2586 105.399 27.7768 105.399 25.9876C105.399 24.1105 105.943 22.5738 107.029 21.3828C108.116 20.1863 109.581 19.5881 111.42 19.5881C113.259 19.5881 114.625 20.1753 115.701 21.3554C116.733 22.5024 117.243 23.9788 117.243 25.7845ZM114.455 25.8723C114.455 24.7582 114.214 23.8032 113.731 23.0019C113.171 22.0359 112.364 21.5529 111.316 21.5529C110.267 21.5529 109.411 22.0359 108.851 23.0019C108.368 23.8032 108.132 24.7746 108.132 25.9217C108.132 27.0688 108.368 27.9908 108.851 28.7921C109.433 29.7581 110.245 30.2411 111.294 30.2411C112.342 30.2411 113.127 29.7526 113.703 28.7702C114.203 27.9524 114.45 26.9919 114.45 25.8723" fill="white"/>
<path d="M125.981 22.2006C125.718 22.1512 125.433 22.1292 125.136 22.1292C124.192 22.1292 123.457 22.486 122.941 23.1995C122.496 23.8306 122.271 24.6265 122.271 25.5869V31.937H119.582L119.604 23.6495C119.604 22.2555 119.571 20.9876 119.505 19.8406H121.843L121.942 22.1567H122.013C122.299 21.3609 122.749 20.7187 123.358 20.2412C123.956 19.8076 124.604 19.5936 125.301 19.5936C125.548 19.5936 125.773 19.6101 125.97 19.643V22.2061L125.981 22.2006Z" fill="white"/>
<path d="M138 25.3125C138 25.7955 137.967 26.2016 137.902 26.5309H129.839C129.872 27.7274 130.262 28.6385 131.008 29.2696C131.689 29.8349 132.567 30.1148 133.648 30.1148C134.839 30.1148 135.926 29.9228 136.908 29.5441L137.331 31.4101C136.189 31.9095 134.834 32.1565 133.269 32.1565C131.398 32.1565 129.921 31.6022 128.851 30.499C127.781 29.3959 127.243 27.914 127.243 26.0534C127.243 24.1929 127.743 22.711 128.736 21.4981C129.779 20.2028 131.189 19.5607 132.968 19.5607C134.746 19.5607 136.03 20.2083 136.93 21.4981C137.638 22.5299 137.995 23.7977 137.995 25.307M135.432 24.61C135.448 23.8142 135.278 23.1281 134.91 22.5464C134.444 21.7999 133.73 21.4267 132.764 21.4267C131.886 21.4267 131.173 21.7944 130.624 22.5244C130.174 23.1062 129.911 23.8032 129.828 24.6155H135.426L135.432 24.61Z" fill="white"/>
</svg>
