<svg width="146" height="35" viewBox="0 0 146 35" fill="none" xmlns="http://www.w3.org/2000/svg">
<path d="M73.3019 18.6594C70.3349 18.6594 67.9228 20.9122 67.9228 24.0221C67.9228 27.132 70.3404 29.3848 73.3019 29.3848C76.2635 29.3848 78.6811 27.11 78.6811 24.0221C78.6811 20.9342 76.2635 18.6594 73.3019 18.6594ZM73.3019 27.2694C71.6756 27.2694 70.2745 25.9287 70.2745 24.0221C70.2745 22.1155 71.6756 20.7748 73.3019 20.7748C74.9283 20.7748 76.3294 22.0935 76.3294 24.0221C76.3294 25.9507 74.9283 27.2694 73.3019 27.2694ZM61.5656 18.6594C58.5986 18.6594 56.1865 20.9122 56.1865 24.0221C56.1865 27.132 58.6041 29.3848 61.5656 29.3848C64.5272 29.3848 66.9448 27.11 66.9448 24.0221C66.9448 20.9342 64.5272 18.6594 61.5656 18.6594ZM61.5656 27.2694C59.9392 27.2694 58.5381 25.9287 58.5381 24.0221C58.5381 22.1155 59.9392 20.7748 61.5656 20.7748C63.192 20.7748 64.5931 22.0935 64.5931 24.0221C64.5931 25.9507 63.192 27.2694 61.5656 27.2694ZM47.604 20.3078V22.5825H53.0436C52.8788 23.8628 52.4557 24.7968 51.8073 25.4452C51.0161 26.2364 49.7744 27.11 47.604 27.11C44.2524 27.11 41.637 24.4122 41.637 21.0606C41.637 17.7089 44.2579 15.0111 47.604 15.0111C49.4117 15.0111 50.7304 15.7199 51.7029 16.6375L53.3074 15.0331C51.9447 13.7363 50.1425 12.7363 47.604 12.7363C43.0161 12.7363 39.1589 16.4726 39.1589 21.0606C39.1589 25.6485 43.0161 29.3848 47.604 29.3848C50.0821 29.3848 51.9502 28.5716 53.4117 27.0496C54.9118 25.5496 55.3788 23.4342 55.3788 21.7309C55.3788 21.2034 55.3403 20.7144 55.2579 20.3078H47.604ZM104.709 22.0716C104.264 20.8737 102.901 18.6594 100.121 18.6594C97.3405 18.6594 95.0658 20.8298 95.0658 24.0221C95.0658 27.0276 97.3405 29.3848 100.384 29.3848C102.841 29.3848 104.264 27.8848 104.852 27.0111L103.022 25.7913C102.412 26.687 101.582 27.2749 100.384 27.2749C99.1867 27.2749 98.335 26.7254 97.7856 25.6485L104.95 22.6814L104.709 22.0716ZM97.401 23.8573C97.3405 21.7858 99.0054 20.7309 100.203 20.7309C101.137 20.7309 101.928 21.1979 102.192 21.8683L97.401 23.8573ZM91.5713 29.0551H93.9284V13.2968H91.5713V29.0551ZM87.7141 19.8573H87.6317C87.1042 19.2254 86.0877 18.6594 84.8075 18.6594C82.1262 18.6594 79.6701 21.0166 79.6701 24.0386C79.6701 27.0606 82.1262 29.3793 84.8075 29.3793C86.0877 29.3793 87.1042 28.8133 87.6317 28.1595H87.7141V28.9287C87.7141 30.9782 86.6152 32.0771 84.8515 32.0771C83.4119 32.0771 82.5163 31.0441 82.1536 30.1705L80.1042 31.0221C80.6921 32.4452 82.258 34.187 84.8569 34.187C87.6207 34.187 89.9559 32.5606 89.9559 28.6045V18.9781H87.7196V19.8518L87.7141 19.8573ZM85.0163 27.2694C83.3899 27.2694 82.0328 25.9067 82.0328 24.0386C82.0328 22.1705 83.3954 20.7693 85.0163 20.7693C86.6372 20.7693 87.8789 22.1485 87.8789 24.0386C87.8789 25.9287 86.6207 27.2694 85.0163 27.2694ZM115.742 13.3023H110.104V29.0606H112.456V23.0935H115.742C118.346 23.0935 120.912 21.2089 120.912 18.1979C120.912 15.1869 118.352 13.3023 115.742 13.3023ZM115.802 20.8957H112.456V15.4946H115.802C117.56 15.4946 118.56 16.9506 118.56 18.1924C118.56 19.4342 117.56 20.8902 115.802 20.8902V20.8957ZM130.335 18.632C128.632 18.632 126.868 19.3847 126.137 21.0441L128.225 21.9177C128.67 21.0441 129.5 20.7639 130.374 20.7639C131.588 20.7639 132.824 21.4946 132.846 22.7913V22.9562C132.423 22.7144 131.511 22.3463 130.396 22.3463C128.148 22.3463 125.857 23.5825 125.857 25.8957C125.857 28.0056 127.703 29.3628 129.769 29.3628C131.352 29.3628 132.22 28.654 132.769 27.8243H132.852V29.0386H135.121V23.0001C135.121 20.2034 133.033 18.643 130.335 18.643V18.632ZM130.049 27.2694C129.28 27.2694 128.203 26.8848 128.203 25.9342C128.203 24.7199 129.538 24.2529 130.698 24.2529C131.731 24.2529 132.22 24.4782 132.846 24.7804C132.665 26.2419 131.407 27.2749 130.049 27.2749V27.2694ZM143.385 18.9781L140.687 25.8078H140.604L137.808 18.9781H135.275L139.473 28.5276L137.082 33.8408H139.533L146 18.9836H143.385V18.9781ZM122.203 29.0606H124.555V13.3023H122.203V29.0606Z" fill="white"/>
<path d="M0.58242 0.758294C0.214286 1.14841 0 1.74731 0 2.52753V30.3793C0 31.1595 0.214286 31.7584 0.58242 32.1485L0.675827 32.242L16.2748 16.643V16.2748L0.675827 0.664886L0.58242 0.758294Z" fill="#5BC9F4"/>
<path d="M21.472 21.8353L16.2742 16.632V16.2639L21.4775 11.0605L21.5929 11.1265L27.7522 14.6265C29.5105 15.6265 29.5105 17.2639 27.7522 18.2639L21.5929 21.7639L21.472 21.8298V21.8353Z" fill="url(#paint0_linear_135_1121)"/>
<path d="M21.5936 21.7694L16.2749 16.4507L0.58252 32.143C1.16494 32.7584 2.12099 32.8354 3.19792 32.22L21.5936 21.7694Z" fill="url(#paint1_linear_135_1121)"/>
<path d="M21.5936 11.132L3.19792 0.681377C2.12099 0.0659901 1.15945 0.142913 0.58252 0.758301L16.2749 16.4507L21.5936 11.132Z" fill="url(#paint2_linear_135_1121)"/>
<path d="M45.2088 1.6485C44.7362 1.23091 44.1099 0.96168 43.4231 0.96168C41.8736 0.96168 40.6813 2.2419 40.6813 3.81334C40.6813 5.38478 41.8736 6.65401 43.4231 6.65401C44.7582 6.65401 45.7253 5.87928 45.7912 4.654H43.6813V3.78037H46.9286C46.9286 6.38478 45.5384 7.61006 43.4231 7.61006C41.3077 7.61006 39.6758 5.91225 39.6758 3.81334C39.6758 1.71443 41.3132 0.00563049 43.4231 0.00563049C44.4011 0.00563049 45.2857 0.384753 45.9286 0.983657L45.2088 1.6485Z" fill="white"/>
<path d="M52.6931 0.0879684V1.02204H49.303V3.39018H52.2645V4.32425H49.303V6.56053H52.803V7.49459H48.303V0.0824738H52.6931V0.0879684Z" fill="white"/>
<path d="M59.1815 0.0879364V1.033H56.9343V7.50006H55.9233V1.033H53.676V0.0879364H59.187H59.1815Z" fill="white"/>
<path d="M63.9778 0.0879364V7.50006H62.9778V0.0879364H63.9778Z" fill="white"/>
<path d="M70.8026 0.0879364V1.033H68.5554V7.50006H67.5444V1.033H65.2971V0.0879364H70.8081H70.8026Z" fill="white"/>
<path d="M77.862 4.57764e-05C79.9829 4.57764e-05 81.6258 1.69785 81.6258 3.80775C81.6258 5.91765 79.9774 7.60447 77.862 7.60447C75.7466 7.60447 74.1147 5.90666 74.1147 3.80775C74.1147 1.70884 75.7521 4.57764e-05 77.862 4.57764e-05ZM77.862 6.63744C79.4225 6.63744 80.6148 5.37919 80.6148 3.80775C80.6148 2.23632 79.4225 0.967082 77.862 0.967082C76.3016 0.967082 75.1202 2.23632 75.1202 3.80775C75.1202 5.37919 76.3126 6.63744 77.862 6.63744Z" fill="white"/>
<path d="M87.5498 7.50006L84.1707 1.91761V7.50006H83.1707V0.0879364H84.1597L87.5058 5.63192V0.0879364H88.5058V7.50006H87.5498Z" fill="white"/>
<defs>
<linearGradient id="paint0_linear_135_1121" x1="26.6094" y1="16.4507" x2="-3.85779" y2="16.4507" gradientUnits="userSpaceOnUse">
<stop stop-color="#FEE000"/>
<stop offset="0.42" stop-color="#FBBC0E"/>
<stop offset="0.78" stop-color="#F9A318"/>
<stop offset="1" stop-color="#F99B1C"/>
</linearGradient>
<linearGradient id="paint1_linear_135_1121" x1="18.7035" y1="19.3408" x2="-9.95599" y2="48.0003" gradientUnits="userSpaceOnUse">
<stop stop-color="#EF4547"/>
<stop offset="1" stop-color="#C6186D"/>
</linearGradient>
<linearGradient id="paint2_linear_135_1121" x1="-10.0824" y1="-15.2253" x2="13.3188" y2="8.17042" gradientUnits="userSpaceOnUse">
<stop stop-color="#279E6F"/>
<stop offset="0.04" stop-color="#2B9F6E"/>
<stop offset="0.46" stop-color="#52B16B"/>
<stop offset="0.8" stop-color="#6BBC69"/>
<stop offset="1" stop-color="#74C169"/>
</linearGradient>
</defs>
</svg>
